<svg version="1.1" id="wood-bg" xmlns="http://www.w3.org/2000/svg" xmlns:xlink="http://www.w3.org/1999/xlink" x="0px" y="0px"
	 viewBox="0 0 1524.6 350" style="enable-background:new 0 0 1524.6 350;" xml:space="preserve">
<style type="text/css">
	.st0{fill:#904933;}
	.st1{fill:#68361D;}
</style>
<path class="st0" d="M0,0h1524.6v350H0V0z"/>
<g>
	<path class="st1" d="M953.3,39.3C892,38.5,710.8,41,602.5,40c-110-1.1-185.5-0.5-258.6-1.2c-62-0.6-245.1,1.5-324,1.6
		c-5.2,0-12,0-19.9,0.1V42c74.4-0.3,155.3-0.2,224.2-0.8c87.2-0.6,279-0.4,374.9-0.3c-19.3,0.9-54.9,1.3-95.1,1.4
		c-63.2,0-141,0.4-203.5,0.7C148.3,42.6,110.9,44,0,44.4v2.4c86.1-0.5,267-2.6,301.7-2.4c41.8,0.3,333.2-1.8,408-1.9
		c100.5-0.2,202.4-0.6,303-0.8c74.1-0.1,312.7,0.5,385.5,0.9c66.9,0.3,83.3,3.2-116.7,1.2c-272.6-2.1-544.3,1-796.1,1.2
		c-109.8,0.1-357.2,2.4-469.1,3.4L0,48.8v1.9c166.7-2.1,404.2-3.1,572.6-4.4c77-0.6,776.4-1,834.6-0.4c34.5,0.3,75.1,0.6,117.4,0.8
		v-2.1c-2.7,0-4.5,0-5.1-0.1l0,0c-23.8-0.4-25.6-0.5-3.2-1.1c1.6,0,4.5-0.1,8.3-0.1v-1.5c-113.1-0.5-242-0.8-332-1.6
		C1124.6,39.6,1024.4,40.2,953.3,39.3z"/>
	<path class="st1" d="M0,24v12.3c23.1-0.3,51.4-0.7,69.8-0.8c206.2-0.8,529.3-1.2,742.1-1.3c185.4,0.2,396.5,0.7,580.7,1.2
		c42.4,0.1,87,0.4,131.9,0.7v-2.1c-127.1-0.4-374.4,0-423.5-0.6c-45.4-0.7-349.4,0.2-408.2-0.5c-66-0.8-544.5,0.5-501.3,0.3l0,0
		c-36.6-0.5,113.1-1.5,122.6-1.6c89.2-0.5,698.4-0.5,763.7,0.3c54.1,0.8,257.7-0.2,330.5-0.1c36.9,0,76,0.1,116.2,0.2v-1.5
		c-95.2-0.1-298.4,0.5-362.3-0.2c-62.7-0.6-401.1-1.2-482.3-1.2c-23-0.1-32.1-0.4-26.5-1h0c55.9-0.3,469.9,0.2,534.8,0.6
		c104.1,0.3,218,0.3,336.3,0.3v-2.8c-95.5,0-233.3,0.2-269.9,0.1c-217.4-0.2-443.5-0.3-661.4-0.3l0,0c-42.7,0,57.8-1.3,92.9-1.5
		c212.1-0.5,545.2-0.4,838.5-0.1v-2.2c-20.6,0-40.9,0.1-60.4,0.3c-48.5,0.4-404.7,0.1-449.8-0.4l0,0c-83.8-0.8,71.3-1.8,94.9-1.6
		c34.6,0.2,290.6,0.6,326.3,0.5c27.2-0.1,57.3-0.2,89-0.2V8.1c-9,0.4-17.6,0.9-25.7,1.3C1258.7,21.5,487.6,22.7,77,24
		C48.5,24.1,23,24.1,0,24z M483.3,28c78.7-1.5,154.7,1.8-66.4,1.3h0C406.3,28.8,455.5,28.5,483.3,28z"/>
	<path class="st1" d="M1524.6,4V3.4l-44.7,2.2C1495,5,1510.1,4.5,1524.6,4z"/>
	<path class="st1" d="M1419.2,56.2c-194.4-0.1-438.3,1.4-642.5,1.2c-96.5-0.2-367.7,3.4-470.3,4.5c-88.3,1-166.1,2-250.5,3.1
		C35.5,65.2,17,65.5,0,65.8v1.5c16.1,0,21.5,0.5,59.8-0.2c75.5-1.3,477.9-6.4,555.7-6.6c162.2-0.5,339.6-2,509.4-2.6
		c133.6-0.4,266.5-0.6,399.7-0.5v-1C1485.1,56.3,1449.5,56.2,1419.2,56.2z"/>
	<path class="st1" d="M445.5,84.5c109.3-1.9,191.7-3.8,318-5c139.5-1.4,193.3-4.7,366.7-4.9c141.7-0.2,252.3-1.8,394.4-1.9v-2.2
		c-17.6,0-34.8-0.1-51.6-0.2c-69.1-0.6-429.7,0.6-513.6,1.1c-130.9,0.7-468.5,5-573.8,7.2C315,80.1,103.4,83.9,0,86.4v5.3
		c101.2-3.4,192.6-6.9,344-9.1c139.2-2,268.5-4.4,407.7-6.3c11.7-0.1,256.8-3.5,235.9-1.6c-15.4,1.3-43.9,1.1-105.8,1.8
		c-165.7,2-450.7,6.1-576.9,9.2C206.1,88.1,93.3,91.6,0,95v2.4c45.6-2.3,93.4-4.9,148.3-6.2C260.5,88.6,311.5,86.9,445.5,84.5z"/>
	<path class="st1" d="M687.4,36.8c-37.5,0-122.4,0.1-149.3-0.6c-24.2-0.7-310.8,0.2-367.1,0.1c-45.4,0-127.6,0.4-171,0.6v2
		c43.6-0.4,81.1-0.6,86.7-0.7c111.3-0.9,476.4-0.3,591.9,0.6c46.5,0.4,367.6-0.8,452.1-0.8c83.8,0,263.9,1.2,352.1,1.8
		c12.9,0.1,26.9,0.2,41.7,0.2v-1.5c-72.7-0.4-145.7-1-181.5-1.2C1185.5,36.5,859.6,36.7,687.4,36.8z"/>
	<path class="st1" d="M1332.3,303.2c43.5,0.7,126.1,2,192.2,3.2v-1.9c-49.4-0.4-149.3-1.1-168.1-1.5c-156.4-4.2-278.2-2.1-452.3-2.8
		c-100.5-0.3-310.2,3.6-384.2,3.1c-46.3-0.4-142.5,1.8-187.9,1.6c-47.8-0.3-274.8,0.6-332,1.2v2.1c122.2-0.8,242.2-0.8,368.9-2.2
		C520.9,304.3,1206.6,301.1,1332.3,303.2z"/>
	<path class="st1" d="M733.3,349.1c-111.6,0.2-248.3,0.7-357.9,0.3C272.8,349,106.2,346.4,0,347v3h1092
		C974.9,349.3,812.5,348.9,733.3,349.1z"/>
	<path class="st1" d="M1238.2,234.8c-111-1.4-113.2-0.6-224.2-0.6c-254.3,0.1-493.1-0.8-744.4-2.2c-70.6-0.4-94-1.3-163.8,0.1
		c-34.4,0.7-69.9,1.4-105.9,2v2.4c43.3-0.2,86.9-0.3,121.1-0.6c68.8-0.6,148.4-1,216.6-0.1c98.4,1.2,348.8,1.9,453.6,1.7
		c111.6-0.2,248.3-0.7,357.9-0.2c102.5,0.3,269.2,3,375.3,2.3v-3.7C1432.1,236.1,1337.4,235.8,1238.2,234.8z"/>
	<path class="st1" d="M738.6,0H577.2C445,2.5,291.9,4.3,79,5.4C53.6,5.5,27.1,5.6,0,5.7V8c30.5,0.1,60.8,0.2,90.6,0.2
		C358.4,6.7,567.4,3.9,738.6,0z"/>
	<path class="st1" d="M192.3,283.2c-43.5-0.7-126.2-2-192.3-3.2v1.9c49.4,0.4,149.3,1.1,168.1,1.5c156.4,4.2,278.2,2.1,452.3,2.8
		c100.5,0.3,310.2-3.6,384.2-3.1c46.3,0.4,142.5-1.8,187.9-1.6c47.8,0.3,274.7-0.6,331.9-1.2v-2.1c-122.2,0.8-242.2,0.8-368.9,2.2
		C1003.7,282.2,318,285.4,192.3,283.2z"/>
	<path class="st1" d="M329.3,2.7c41.2-0.5,97.5-1.4,160.8-2.7H294.4C239.1,0.8,176.8,1.5,102,2.1C66.8,2.3,32.9,2.4,0,2.4v1.5
		C137.7,4.1,178.3,3.8,329.3,2.7z"/>
	<path class="st1" d="M378.1,49c-140,0.5-264.4,1.7-378.1,3.4v2.7C73.7,54,143.6,53,191.9,52.6c103.8-0.9,267.9-2.7,366.1-3.2
		c57,0,161.4-0.3,214.8-0.7c51.4-0.3,304.5-0.5,349.5-0.1c46.6,0.4,112.7,1.4,11,1.1c-197.5-0.2-499.4,2-707.6,2.5
		c-70.5,0-175,2.4-253.8,2.9c-58,0.3-116,1.3-171.9,2.2v3.4c3.7-0.4,33.3-1.2,38.7-1.8c11.8-1,436-5.1,502.4-5.9
		c122.9-1.3,228.1-0.8,351.1-1c68.4-0.1,183.9-1,245.8-0.8c120,0.1,263.6-0.3,386.6-0.3v-3.1c-33-0.3-78.2-0.7-155.8-0.9
		C1037.9,46.3,705.9,48,378.1,49z"/>
	<path class="st1" d="M527.3,84.7c-121.7,2.9-249.7,6.3-355.5,9.6C115.4,96,51,97.8,0,99.6v3.7c13.2-1,18.8-1.8,63.9-3.3
		c58.8-2,135.8-3.7,194.4-5.7c69.8-2.3,147.9-4,214-6.6c83.4-3.2,154.6-3.3,283.8-4.8c124.6-1.4,424.6-4.9,552.3-4.9
		c61.8-0.1,139-0.6,216-1v-2c-141.4,0.4-305.3,1-360.6,1.2C1046.1,76.8,615.6,82.6,527.3,84.7z"/>
	<path class="st1" d="M0,0.7v0.2c19.5,0,40.3-0.1,61.9-0.2C40.9,0.7,20.2,0.7,0,0.7z"/>
	<path class="st1" d="M1291.5,12.7C1291.5,12.7,1291.5,12.7,1291.5,12.7L1291.5,12.7C1291.5,12.7,1291.5,12.7,1291.5,12.7z"/>
	<path class="st1" d="M1200.8,122.1c3.1-2.5,10.6-2.4-45-4c-37.3-1,0-7.7,44.2-8.8c31.6-0.9,95-4,117.2-2.5c17.9,1.9,9.9,1.8-36,3.4
		c-20.8,0.7-35.6,0.8-61.6,1.4c-45,0.9,101.6,9.9,96.2,11.6c-5,1.6-3.4,2.8,38.8,4c37.7,1.1,100.4,2.3,169.9,3.4v-3.8
		c-8-0.2-15.3-0.4-21.6-0.6c-46.8-1.4-83.8-3.3-129.4-4.6c-23.5-0.7-29.9-4.3-72.8-5.6c-41-1.3,31.8-5.3,42.6-6.8
		c6.1-0.7,127.1-2.9,181.1-3.8v-3.1c-49.7,0.2-110.2,1.4-143.2,2c-118.8,2.3-207.1,4.3-288.3,7.5c-47.3,1.9-12.7,3.2-10.4,5.2
		c-0.2,0.7-3,1.3,15.3,1.9c8.1,0.2,86.1,8.5,88.7,9.3c9.1,2,128.5,3.3,173.1,4.6c27.8,0.8,104.1,1.5,164.9,2v-1.9
		c-66.2-1.1-127.2-1.9-152.3-2C1291.2,129.8,1205.3,124.4,1200.8,122.1z"/>
	<path class="st1" d="M1515.7,108.5c2.6,0.1,5.6,0.1,8.9,0.2v-2.1c-152.7,2.4-78.7,1.7-156,3.8c-28.8,0.7-25.3,3.6-27.1,4.7
		c-1,1,75.2,2.6,84.6,4.3c5.7,0.8,49.9,2.8,98.5,4.5v-3.7l-11.4-0.4c-80.6-2.9-69.9-1.2-110.3-5.1c-9.3-0.8,4.7-3.3,33-3.9
		c14.5-0.3,44.5,0.8,37.2,1.4c-17.5,1.4-57.1,2.1-16.9,3.5c21.5,0.8,44.6,1.5,68.5,2.2v-7.6l-0.7,0c-19.3-0.3-43.9-0.8-68.1-0.8
		c0.3,0,0.7-0.1,1-0.1c-0.3,0-0.7,0.1-1,0.1c-0.5,0-0.9,0-1.4,0C1462.6,109.1,1502.3,108,1515.7,108.5z"/>
	<path class="st1" d="M387.9,76.7c108.8-1.1,215.3-2.9,336.1-4.2c147.4-1.5,195.1-4.1,376.7-3.5c149.1,0.3,285.1,0,423.9-0.3v-1.9
		c-131.4-0.1-300.6-0.1-412.8,0.1C993,67.6,802.3,69.5,674,70.4c-167.1,1.1-366.8,2.3-494.5,5.4C52.4,78.9,85,78.6,8.1,81.7L0,82
		v3.5l5.7-0.2C75.3,83.4,301.4,77.5,387.9,76.7z"/>
	<path class="st1" d="M675.9,62.1c-140,0.1-376.3,3.5-498.5,5.2C97,68.4,45.7,69.3,0,70.3v3.2c36.2-1,75-2,119.4-2.5
		c89-1.1,425.9-5.9,503-5.8c179.3-0.1,422.4-2.9,638.6-2.9c86.7,0.1,174.8,0.1,263.6,0.1v-3c-17.3-0.1-33.9-0.1-49.5-0.2
		C1441.4,58.7,789.4,62,675.9,62.1z"/>
	<path class="st1" d="M848,291.8l8.3-0.1c0.5,0,0.9,0,1.5,0.1l0,0c-0.5,0-1,0-1.5-0.1c58-0.2,116-0.5,173.9-0.7
		c57.6-0.3,110.5,0.1,166.4,0c41.3-0.2,85.9-0.3,127.6-0.4c134.3-0.5,149.5-1.1,200.3-2.1v-2.2c-36.1,0.8-76.9,1.6-86.4,1.7
		c-65.9,0.7-207.1,1.8-272.4,1.5c-223.1-0.7-319.4,1.9-507.5,2.2c-16.2,0-27.7,0.1-38.1,0.2H479.7c-53.4-0.7-94.4-1.8-32.1-1.6
		c228.7,0.1,385.9-2.3,593.7-3.3c41.8,0,82.9-0.1,124.6-0.1c136.7-0.1,234.6-1.3,358.6-2.2v-2.3c-73.8,0.9-137.3,1.4-158.1,1.3
		c-97.5-0.5-288.8,1.2-386.8,2.2c-307.3,2.7-345.8,2.7-652,2.3c-27.9,0.1-249.3-2-265.1-2.8C54,284.8,29.4,284.4,0,284v3.2
		c48.2,0.9,89.6,0.5,208,2.6c37.8,0.7,74.3,1.3,110.5,2H181.6c-34.7-0.6-69.8-1.2-103.8-1.5c-17.9-0.2-45.4-0.4-77.8-0.7v1.2
		c10.7,0.1,21.1,0.3,30.6,0.6c4.7,0.2,9.7,0.3,15,0.4H0v4c27.7-0.4,58.3-0.7,88-1h588.6l-8.3,0.1c0,0-0.1,0-0.1,0c0,0,0.1,0,0.1,0
		c-58,0.2-116,0.5-173.9,0.7c-57.6,0.3-110.5-0.1-166.4,0c-41.3,0.2-85.9,0.3-127.6,0.4C66,296.4,50.8,297,0,298v2.2
		c36.2-0.8,77-1.6,86.5-1.7c65.9-0.7,207.1-1.8,272.4-1.5c223.1,0.7,319.4-1.9,507.5-2.2c16.2,0,27.7-0.1,38.1-0.2h140.5
		c53.4,0.7,94.4,1.8,32.1,1.6c-228.7-0.1-385.9,2.3-593.7,3.3c-41.8,0-82.9,0.1-124.6,0.1C222,299.8,124,301,0,301.9v2.3
		c73.8-0.9,137.3-1.4,158.2-1.3c97.5,0.5,288.8-1.2,386.8-2.2c307.3-2.7,345.8-2.7,652-2.3c27.9-0.1,249.3,2,265.1,2.8
		c8.5,0.5,33.2,0.9,62.6,1.3v-3.2c-48.2-0.9-89.6-0.5-208-2.6c-37.9-0.7-74.3-1.3-110.5-2H1343c34.6,0.6,69.8,1.2,103.8,1.5
		c17.9,0.2,45.4,0.4,77.7,0.7v-1.2c-10.7-0.1-21.1-0.3-30.5-0.6c-4.7-0.2-9.7-0.3-15-0.4h45.5v-4c-27.7,0.4-58.2,0.7-87.9,1H848z"/>
	<path class="st1" d="M1150,53.6c-71.6-0.5-512.6,1.9-636.2,2c-130.6,0.4-360.2,3.5-482,5.1h0C10.7,60.9,1.8,60.9,0,60.8V64
		c228.1-4.3,577.3-7.6,834.8-8.6c114-0.5,234.2-0.6,347.7-1.2c82.3-0.4,242.2-0.3,342.1-0.1v-0.9C1391.9,53.5,1263.1,53.8,1150,53.6
		z"/>
	<path class="st1" d="M1442.3,64c-110.2-0.2-285.5,0.3-398.8,0.7c-105.6,0.3-212.7,1.2-317.4,1.6c-88.7,0.3-246.5,2.1-338.4,2.9
		C303,69.8,99.5,73.8,24.1,75.4C15.8,75.6,7.7,75.7,0,75.9v2.9c75.7-2,197.3-5,265.6-6.3c88.6-1.4,247.4-2.7,347-3.4
		c98.1-0.6,443.8-3.6,517.5-3.4c121.2,0.2,261.4-0.2,394.5-0.3V64C1496.8,64,1469.4,64,1442.3,64z"/>
	<path class="st1" d="M1307.8,247.9c-149-1.7-376.2-2.5-532.7-2.9c-80-0.2-161.7,0.5-246.2,0.3c-57.9-0.1-96.9-2.1-39.8-2.9l0,0
		c8.5-0.1,101.1,0.5,154.5,0.2c102.5-0.7,284.4,1.1,400,1.2c89.9,0,183.3,1.2,278.3,1.3c66.6,0.1,134.5-0.3,202.6-0.9v-2
		c-16.4,0.1-34.1,0.2-53.6,0.2c-107.4,0.1-229.4-2-335.3-2.7C964,239,758,240.3,582,239.5c-94.3-0.6-187.9-1.5-282-2.1
		c-70.5-0.4-234,2.4-300,2.3v3.2c85.6-0.3,197-1.1,246-1.3c67.2-0.3,111.1-1.6,163.2-1.4c81.4,0.4-99.3,3.7-105.9,3.8
		c-82.3,0.9-187.2,1.3-303.2,1.6v2.5c1.6-0.1,3.3-0.1,5.3-0.2c0,0,0,0,0,0c69.1-0.1,188.5-0.4,252.6-1.2
		c46.4-0.5,97.4-1.6,142.5-0.4c136.4,3,349.6,2,503.8,2.3c147.1,0.3,286.3,2,436.2,1.8c76.2-0.1,132.7-0.5,184.2-1.1v-2.5
		C1434.8,247.7,1353.5,248.4,1307.8,247.9z"/>
	<path class="st1" d="M286.2,219.8c162.6,1,516.3,2,671.5,1.1c140.1-0.8,390-4.8,511.9-4.4c17.1,0.1,35.5,0.2,54.9,0.3v-2.5h-22.7
		c-134.2-0.2-90.1-0.7-248.6,0.4c-143.1,0.9-291.8,2.2-435.9,2.7c-183,0.4-564.6,0.3-817.3-0.3v3.8
		C97.9,220.7,193.1,219.6,286.2,219.8z"/>
	<path class="st1" d="M304.5,251.6c25.9-0.6,229.5,1.6,270.4,2c217.6,1,464.7,4.9,683,2.4c87.8-1,177.5-1.6,266.6-2.2v-2.2
		c-144.2,0.6-311.8,1.6-436.4,0.7c-96.5-0.8-355.3-0.3-419.4-1.4c-70.3-1.1-327.2-2.1-409.4-2.1c-24.6,0-209,1.6-259.4,0.8v4.1
		c71.3,0.3,133.8,0.5,206.9,1.1c87.3,0.8,96,0.9,24.3,2.6c0,0-150-0.4-220.6-0.8L0,256.5v1.3c55.1,0.4,107.5,0.7,142.4,0.6
		c68.9-0.2,207.2,1.1,276.1,1.9c41.6,0.4,236,0.8,198,2.4c-74,2.4-291.6,0-378.8-0.9c-72.2-0.5-159.7-0.1-237.7-0.1v3.1
		c49.6,1.1,98.8,2.3,136.8,2.8c96,1.1,345.7,2.6,445.6,2.7c5.4,0,95.8,0,75.8,0.7c-52.3,1.7-285.5,1.2-360.2,1.3
		c-97.7,0-194.6-2.4-298.1-4.5v2.9c78.4,1.5,167.7,2.8,226.4,5.1c120.5,4.5,307.9,1.8,450.5,0.6c139.6-1.1,358.9-2.6,497.8-3
		c78.9-0.1,253.9-0.1,349.9-1v-2.2c-102.6,1-251.9,2-301.5,1.8c-54.7-0.3-158.7-0.8-210-0.1c-37.8,0.5-115.5,1-153.3,0.4
		c-129.4-2-194.7,3.3-274.3,3.4c-55.1,0-140.9,1.5-191.7,1.1c-7.1-0.1-92.3-0.8-71-1.4c21.2-0.7,124.6-1.7,153.2-1.7
		c54.2,0,112.9-0.3,166.3-0.7c0,0,0,0,0,0c0.2,0,31.8-1.2,47.3-1.7c48.6-1.6,68.2-2.7,135-2.2c195.4,1.6,386.8,0.5,583.2,0
		c38.5-0.1,77.7-0.5,116.6-1v-3.8c-27.2,0.2-56.6,0.6-91.6,1c-64.5,0.9-152,2.2-220.5,2.1c-51.4-0.1-103.4,0.4-153,0.2
		c-57.7-0.3-130.3,0.4-192,0.1c-39.2-0.1-86.1-1.2-117.3-1c-16.8,0.1-99.5-0.7-65.8-1.8c37.9-1.2,217.1,0.3,271.3,0.3
		c-0.3,0-0.7,0.1-1,0.1l0,0c82.5-0.1,165.1-0.1,247.7-0.3c75.1-0.4,183-2.3,251.9-2.4c7.3,0,33.4-0.3,70.4-0.7v-1.2
		c-97.2,1-197.1,2.1-288.1,2.6c-163.9,0.6-351.4-1.1-514-1.2c-27.2,0-59.3,2.9-82.8,3.7c-105.8,3.5-333.7,1.7-451.5-0.2
		c-44.7-0.9-72.6,0.4-107.8-1.3c-25.9-1.3,7.9-1.1,30.7-1.1c52.1,0.1,99.9-0.3,146,0.9c129.6,3.5,214.5,0,347.2-0.4
		c78.1-0.2,40.5-0.9,56.8-3.2c6.4-0.9,61-0.5,78.8-0.6c137.6,0.2,383.9,0.7,512.9,1.6c49.4,0.4,200.8-2.6,271.8-3.1v-2.1
		c-45.5,0.6-81.3,1-99.8,1.3c-67.3,1-149.3,1.2-221,1.1c-103.1-0.2-313.8,0.9-401-0.4c-70.5-1-173.8-2.3-246.8-2.8
		C532,255.5,234.3,253.7,304.5,251.6L304.5,251.6z"/>
	<path class="st1" d="M175.9,224.3c118.9,0.4,278.7,1,393.6,2c76.5,0.7,273.9,0.4,353.2-0.2c68.4-0.5,250.6-2.5,308.5-2.2
		c84.5,0.6,194.5-0.1,293.3-0.1V219c-13.1,0-29.6,0.1-50.8,0.3c-115.3,0.9-207.6,2.5-327.5,2.9c-84.5,0.3-336.5,3.2-390.8,2.6
		c-181-1.4-540.5-1.9-726.1-1.6l-29.3,0v1.4C61.6,224.3,121.6,224.1,175.9,224.3z"/>
	<path class="st1" d="M469.2,310.6c90.1-1.3,460.7-4.9,545.7-4.8c34.4,0.1,73.7-0.6,115.2-0.6c116.3,0,270.7,3.8,394.4,7V309
		c-54.9-1.2-110.4-3.2-169.9-3.6c-107.2-0.8-207.7-1.9-318.9-1.6c-157,0.3-297.4,2.7-444.8,3.3c-137,0.6-396.7,1-590.9,2.5v2.5
		c82.2-0.8,168.9-1.4,236-1.7C318.6,310.4,377.9,311.7,469.2,310.6z"/>
	<path class="st1" d="M1384.4,0l-6.6,0.2l-4,0.1l0,0c-6.5,0.2-13,0.4-19.6,0.6l-0.7,0c-6.6,0.2-13.3,0.4-20.1,0.6l-0.6,0l-1.4,0
		c-6.7,0.2-13.5,0.4-20.4,0.5l-2.1,0.1c-28.4,0.8-57.8,1.5-88,2.2l-0.8,0c-7.8,0.2-15.7,0.4-23.6,0.5l-6.1,0.1l-6.2,0.1
		C1138.4,6,315.9,21,265.4,17.2c-0.7-1.1-47.5-1.2-78.3-1.4c-66.8-0.6-96.1-1.8-24.7-1.3c58.3,0.5,70.7,0.8,133.3,0.5
		c228.3-2,565-7.8,806.2-10.7c65.4-0.9,127.4-2.6,177.1-4.4h-158.6C959.9,4.5,388.8,13.1,252.1,12.6c-117-0.5-23.5-0.9,26.6-1.3
		c78.8-0.5,658.6-7.9,662.9-9.4c8.6-0.6,21.9-1.2,38.7-1.9H778.2C626.7,4.2,493.2,7.3,426.1,8.2C291.1,10,146.5,11.2,0,11.4v6
		c51.1,1.4,100.1,2.9,165.8,3.5c358-1.2,859.7-1.6,1105.3-11.2c57.5-2.1,180.7-7.3,246.8-8.7c1.8,0,4.1-0.1,6.7-0.2V0H1384.4z"/>
	<path class="st1" d="M1293.4,329.1c0,0,150,0.4,220.6,0.8l10.6,0.1v-1.3c-55.1-0.4-107.5-0.7-142.4-0.6
		c-68.9,0.2-207.2-1.1-276.1-1.9c-41.6-0.4-236-0.8-198-2.4c74-2.4,291.6,0,378.8,0.9c72.1,0.5,159.6,0.1,237.7,0.1v-3.2
		c-49.5-1.1-98.8-2.3-136.8-2.8c-96-1.1-345.7-2.6-445.6-2.7c-5.4,0-95.8,0-75.8-0.7c52.3-1.7,285.5-1.2,360.2-1.3
		c97.7,0,194.6,2.4,298,4.5v-2.9c-78.4-1.5-167.7-2.8-226.4-5.1c-120.5-4.5-307.9-1.8-450.5-0.6c-139.6,1.1-358.9,2.6-497.8,3
		c-78.9,0.1-254,0.1-350,1v2.2c102.6-1,251.9-2,301.5-1.8c54.7,0.3,158.7,0.8,210,0.1c37.8-0.5,115.5-1,153.3-0.4
		c129.4,2,194.7-3.3,274.3-3.4c55.1,0,140.9-1.5,191.7-1.1c7.1,0.1,92.3,0.8,71,1.4c-21.2,0.7-124.6,1.7-153.2,1.7
		c-54.2,0-112.9,0.3-166.3,0.7c-0.5,0-1,0-1.4-0.1l0,0c0.5,0,0.9,0,1.4,0.1c0,0-31.7,1.2-47.3,1.7c-48.6,1.6-68.2,2.7-135,2.2
		c-195.4-1.6-386.8-0.5-583.2,0c-38.5,0.1-77.7,0.5-116.7,1v3.8c27.2-0.2,56.7-0.6,91.6-1c64.5-0.9,152-2.2,220.5-2.1
		c51.4,0.1,103.4-0.4,153-0.2c57.7,0.3,130.3-0.4,192-0.1c39.2,0.1,86.1,1.2,117.3,1c16.8-0.1,99.5,0.7,65.8,1.8
		c-37.9,1.2-217.1-0.3-271.3-0.3c0.3,0,0.7-0.1,1-0.1c-82.5,0.1-165.1,0.1-247.7,0.3c-75.1,0.4-183,2.3-251.9,2.4
		c-7.3,0-33.4,0.3-70.4,0.7v1.1c97.2-1,197.2-2.1,288.1-2.6c163.9-0.6,351.4,1.1,514,1.2c27.2,0,59.3-2.9,82.8-3.7
		c105.8-3.5,333.7-1.7,451.5,0.2c44.7,0.9,72.6-0.4,107.8,1.3c25.9,1.3-7.9,1.1-30.7,1.1c-52.1-0.1-99.9,0.3-146-0.9
		c-129.6-3.5-214.5,0-347.2,0.4c-78.1,0.2-40.5,0.9-56.8,3.2c-6.4,0.9-61,0.5-78.8,0.6c-137.6-0.2-383.9-0.7-512.9-1.6
		c-49.4-0.5-200.9,2.6-271.8,3.1v2.1c45.5-0.6,81.3-1,99.9-1.3c67.3-1,149.4-1.2,221-1.1c103,0.2,313.8-0.9,401,0.4
		c70.5,1,173.8,2.3,246.8,2.8c24,0.2,321.6,2,251.5,4.1l0,0c-25.6,0.6-229.6-1.6-270.5-2c-217.6-1-464.7-4.9-683-2.4
		C178.8,331.5,89,332,0,332.7v2.2c144.2-0.6,311.8-1.6,436.4-0.7c96.5,0.8,355.3,0.3,419.4,1.4c70.3,1.1,327.2,2.1,409.4,2.1
		c24.6,0,208.9-1.6,259.3-0.8v-4.1c-71.3-0.3-133.7-0.5-206.9-1.1C1230.3,330.9,1221.7,330.8,1293.4,329.1z"/>
	<path class="st1" d="M666.8,294.8c0.1,0,0.1,0,0.1,0C666.9,294.8,666.8,294.8,666.8,294.8L666.8,294.8z"/>
	<path class="st1" d="M1067.8,107.5c-26.9,1-151.7,5.1-124.2,6.2c48.7,3.7,49.9,10.1,95.8,14.1c38.6,2.3,79.2,5.3,98.4,7.7
		c20.5,2.7,77.6,3.1,139.3,4.9c20.8,0.6,137.3,1.9,247.4,3.1v-3.2c-27.1-0.2-49.7-0.3-65.6-0.4c-63.8-0.3-109.5-3.9-167-2.7
		c-31.1,0.6-79.2-0.7-80.1-1.6c-1.7-1.5-29.8-3.6,35.8-2c84.5,2.3,178.7,3.1,275.1,4.9l1.8,0v-1.7c-23.4-0.4-42.7-0.8-53.2-1.2
		c-37-1.1-191.6-1.9-238.5-3.3c-51.9-1.6-122.6-2.5-131.1-4.7c-14.6-4.1-52.2-8.5-70.7-12.7c-6.7-2.2-15.3-3.7,38.5-5.6
		c65.6-2.3,228.6-5.6,322.4-7.5c16.2-0.3,73.7-0.7,132.5-0.9v-1.3c-30.2,0-59.7-0.1-88.1,0.1c-90.3,0.3-317.9,3.1-400.9,4.3
		c-59.7,1-72.6,1.2-118.9,2.5c-60.2,1.8-117.7,6.4-164,8.8c-37.9,2.1-15.1,6.1-32.9,8.5c-13.2,1.8,4.1,6,23,7.8
		c46.9,3.3,113.5,6.9,170.5,10.1l0,0c-95.7,0.8-211.8-9.9-243.1-11.6c-23-1.2,20.5-7.5,20.8-9.4c-14.8-5.6-59.7-4,64.3-10.6
		c119.2-5.7,209.5-7.3,430.1-10c45.6-0.6,191.1-1.3,339.3-1.7v-1.4c-20.8-0.1-39.2-0.2-52.7-0.3c-41.2-0.4-403.2,3.3-458.5,4
		c-172.7,2.2-169.7,2.7-279.2,6.2c-45.7,1.5-62.2,3-90.5,4.8c-62.9,4-138.5,6.3-61.7,10.6l0,0c-57.4,1.3-94.8-3.6-96.6-4.4
		c-3.1-0.7,93.4-7.3,108.9-8.6c25-2.1,125.7-4.9,185.4-6.5c78-2.1,314.3-5.2,430.2-5.8c97.1-0.5,192.6-1.3,289.8-1.8
		c9.6-0.1,17.8-0.1,25-0.1v-1.9c-252.3,0.2-503.6,0.5-664.1,2c-133.4,2.1-149.8,3.2-244.6,6c-57.5,1.8-77.8,2.2-117.7,4.3
		c-39.2,2.1-58.6,3.7-120,5.6c-58.6,1.9-60.1,3.8-78.8,6c-24.2,2.9-43.7,5.8-65,8.7l0,0c-137.7,1.8,93.2-15.3,101.6-16.3
		c44.2-2.4,135.8-6.3,195.4-8.6c62.7-2.5,278.9-6.6,382.3-8.2c77.3-1.1,108.6-1.4,192.5-2c77.1-0.4,64.1,0.2,108.2,1
		c29.7,0.4,193.3-0.3,310.3-0.7v-2.1c-14.6,0.1-28.5,0.2-41.2,0.4c-60,0.6-238.6,0.6-277.6-0.3c11.1-0.4,99.5-0.5,119.4-0.5
		c63.4-0.2,121.9-0.9,189-1.2l10.4,0v-1.5c-13.2,0-26,0-38.2,0c-93.9,0.1-102.9-0.7-197.5,0.3c-147,1.4-280.1,3.5-433.6,4.8
		c-144.6,1.2-127.5,2.9-237.3,5.1c-123.5,2.4-79.7,2.4-156.8,5.3c-59.5,2.1-103.9,3.8-152.7,6.1c-43.9,2.2-52.5,3.3-65.7,5.7
		c-9.5,1.3-105.5,9-135.2,9.7l0,0c-59.1,0.8-13.6-5.6-2.7-6.4c38.1-2.2,59.4-5.3,82.2-7.7c22.2-2.3,195.5-7.2,256.7-9.5
		c156.1-5.9,178.1-6.7,429.1-10.4c92.5-1.4,202.9-2.3,303.4-3.3c75.1-0.8,123.9-1.4,207-1.3c46.9,0,94,0,141.3-0.2v-2.1
		c-143.6,0.4-273.4,1-331.1,1.4c-18.8,0.1-76.5,0.3-76.2-0.5l0,0c-13-0.8,117-2.3,142.3-2.4c65.7-0.2,178-0.6,265-0.7v-1.5
		c-116.4,0.1-437.2,1.8-516.6,2.7c-95.6,1.1-197.5,2.2-284.2,3.6c-121.8,2.2-300.4,6-392.6,8.8c-70.3,2.2-246,7.2-268.6,9.8
		c-8.7,1-38.1,4.6-62.5,6.9v4.4c37.6-3.6,117-9.2,120.3-9.5c25.1-2.1,141.6-6,194.3-7.8c112.3-3.8,386.8-9.2,546.4-12
		c136.9-2.4,58.9-0.7,141.1-1.2c99-0.6-21.1,1.2-39.5,1.4c-68.2,0.7-79.3,0.6-155.4,1.7c-94.6,1.4-173.2,4.1-263.8,5.9
		c-98.5,2-115.4,2.8-195,4.9c-67,1.7-76.3,3.6-130.6,5.5c-48.9,1.7-61,2.4-84.1,4.3c-36.5,3.1-89.6,6.5-133.8,9.6v12.6
		c10.3,0,20.3,0.1,30,0.1c43.6,0.2,188,0.3,286.9,0.7c-20.5-1.3-21.7-6.3-13.8-6.9c21.3-2.3,94.8-6.1,85.1-8.5
		c-6-1.7,129.6-9.5,172.5-11.2c63.3-2,178.9-4.9,253.5-6.8c36.6-0.9,175-2.3,228.4-2.7c146.3-0.9,173.9,0.9-106,2.5
		c-90.8,0.4-296.5,7.2-363.6,9.1c-38.4,1-68.6,5-90.7,6.5c-35.5,2.4-48.3,8.7-100.4,10.3c-32.3,1.4-38.4,5.7-41.1,7.5
		c-0.9,0-1.8,0.1-2.6,0.1c28.9,0.1,52.2,0.3,65.1,0.5c-8.9-2.2-7-5.6,4.1-6.3c2.2-0.2,75.4-4.8,84.2-3.2c10.3,1.4-53.7,3.6-40.9,4.8
		c23,2.9-6.6,3.3,8.2,5.1c13.1,0,22.9,0.1,25.4,0.8c0.2,0.1-3.9,0.3-11.6,0.4c9.7,0.7,24.1,1.5,45.4,2.6c-34.2,1-76.6-1.6-95.2-2.3
		c-94.4,0.4-279.2,0.3-423,0.2v3.5c178.5,0.4,379.4,1.7,559.6,2.5c82.8,0.5,180.8,2.2,264.3,2.2c4.9,0,249.1,1.2,185.5,1.6
		c-95.1,0.4-415.7,0.2-498.6-0.9c-91.3-1.2-336.8-1.5-510.8-1.6v2.5c139.3,0,277.1,0.2,405.1,0.9c118.1,0.9,278.4,0.6,389.4,1.9
		c108.5,0.9,349.5-2.3,336.3,1.3c-39.1,0-73.5,0.1-111.4,0.5c-83.8,0.9-797.6,0.1-885.5-0.9c-24.7-0.3-74.5-0.6-133.9-0.7v3.2
		c104.2,0,269.3-0.6,312.3,0.1c47.1,0.8,37.1,3.2-29.6,3.3C217,153.5,70.2,152.2,0,152.6v5.5c21.7-0.2,40.9-0.3,47.5-0.2
		c28.5,0.4,306.7,0.9,343,0.7c147.6-0.9,380.8-1.8,527.3-1.4c64.6,0.2,363.4,0.3,397.3,1.1c33.6,0.7,76.2-0.6,75.6,1.1
		c0.3,1.6-649.7,1.4-721.1,1.3c-81.6-0.1-172.9-0.8-251.9,0.3c-45.5,0.6-295.4,0.4-417.7-0.1v2.6l61.7,0.3
		c55.9,0.3,158.3,2.7,88.1,3c-34.3,0-89.6-0.1-149.9-0.2v2.3c84.7,0.5,157.8,0.9,186.1,0.5c57.2-0.7,427.2-0.8,485.6-0.2
		c104.4,0.5,240.3-0.4,345.8,0.4c68.4,0.6,134.1,1.8,202.7,2.4c59.2,0.6,151.2-1.2,213.7-1.7c20.8-0.2,63.4-0.3,90.6,0.1v-24.7
		c-199.7-1.2-383.4-5.7-443.6-9.6c-34.4-3.3-89.2-6.7-121.2-10c-16.7-1.6-31.5-3.8-61.9-5.3c-30.3-1.4-21.9-3.1-30.3-4.7
		c-12.1-1.6,26.7-4.6,63.7-6c52-1.8,90.6-3.7,152.5-5.3c57.2-1.5,52.6-1.3,120.7-1C1238.6,104.1,1105.5,106.3,1067.8,107.5z
		 M587.6,134.9c-13.4-2.5-26.3-5-38.5-7.6c-9.2-1.2-13.6-2.2,28.3-3c45.7-0.9,25.1,1.8,24.4,2.3c-5.2,3.3,38.1,8.5,68.8,11.8h0
		C623.3,139.2,587.1,135.6,587.6,134.9z M638.3,165.8c-36.1,1-368.5,1.5-389.8,0.9l0,0c-72.1-3.1,187-2.4,214-2.3
		C537.4,164.5,750.9,162.5,638.3,165.8z M1499.6,167.4c-72.8-0.1-143.8-0.5-213.6-1.3c-113.1-1.2-159.4,0.3-254.5,0.5
		c-81.7-0.1-174-0.3-255.1-0.1l0,0c-32,0-37.5-1.1-34.6-2.1c4.4-1.3,97.1-0.9,120.6-0.9c183.4-0.3,383.6-0.5,566.4-0.1
		C1480.9,163.8,1498.7,165.5,1499.6,167.4z M942,134.8c-5.9,1,35.4,2.3,59.8,3c22.8,0.7,244.2,5.5,216.6,6.1
		c-98.9,1.8-283.7-5.8-336.7-7.2c-40.4-1-53.8-3.4-63.7-4.8c-12.7-1.7-85.9-8.2,33.8-8.3C880.3,126,953.5,132.6,942,134.8z"/>
	<path class="st1" d="M1519.3,338.6c-69.1,0.1-188.5,0.4-252.6,1.2c-46.4,0.5-97.4,1.6-142.5,0.4c-136.4-3-349.6-2-503.8-2.3
		c-147.1-0.3-286.3-2-436.2-1.8C108,336.2,51.5,336.6,0,337.2v2.5c89.8-1,171.1-1.6,216.8-1.1c149,1.7,376.2,2.5,532.7,2.9
		c80,0.2,161.7-0.5,246.2-0.3c57.9,0.1,96.9,2.1,39.8,2.9v0c-8.5,0.1-101.1-0.5-154.5-0.2c-102.5,0.7-284.4-1.1-400-1.2
		c-89.9,0-183.3-1.2-278.3-1.3C136,341.3,68.1,341.7,0,342.3v2c16.4-0.1,34.1-0.2,53.6-0.2c107.4-0.1,229.4,2,335.3,2.7
		c171.7,0.6,377.7-0.6,553.7,0.1c94.3,0.6,187.9,1.5,282,2.1c70.5,0.4,233.9-2.4,299.9-2.3v-3.2c-85.6,0.3-197,1.1-245.9,1.3
		c-67.2,0.3-111.1,1.6-163.2,1.4c-81.4-0.4,99.3-3.6,105.9-3.8c82.3-0.9,187.2-1.3,303.2-1.6v-2.5
		C1523,338.4,1521.2,338.5,1519.3,338.6C1519.3,338.6,1519.3,338.6,1519.3,338.6z"/>
	<path class="st1" d="M501.8,205c-157.3-0.1-332.3-0.1-501.8-0.3v2.1c43.5,0.2,88.2,0.4,134.6,0.8c248,2.1,294.4,1.3,524.8,0.9
		c205-0.2,418.1-1.7,623.4-2c79.3-0.1,160.6-0.3,241.8-0.6v-4c-218,1.7-463,4.3-640.9,4.2C757.5,205.7,628.4,205.4,501.8,205z"/>
	<path class="st1" d="M0,231.1v1.7c2.4-0.1,4.8-0.1,7.1-0.2C27.5,231.8,19.5,231.4,0,231.1z"/>
	<path class="st1" d="M1143.1,227.4c-137.3,1.3-275,2.2-416.2,2.5c-155,0.2-399-1.4-554.9-2.6c-34-0.2-96-0.2-172.1-0.1v1.8
		c124.7-0.1,272.3,0,293.5,0.3c147.1,0.2,427.3,1.6,575.7,2.6c60.2,0.4,195.3-0.5,262.9-0.7c147-0.3,247.1,1.4,392.4,0.9v-4.9
		C1402.2,227.1,1306.2,226.1,1143.1,227.4z"/>
	<path class="st1" d="M298.5,201.8c116.7,0.9,511.7,2.3,621.6,1.7c198.6-1.3,402.7-2.7,604.4-3.9v-4c-202.7,1.8-533.8,5.7-693.4,5.1
		c-224.4-0.9-488.3-1.6-714.3-1.9c-38.5,0-77.6,0.1-116.9,0.1v2.4C105.9,201.3,211.9,201.3,298.5,201.8z"/>
	<path class="st1" d="M1206.5,174c-82.3,0-190-1.8-269.8-2.7c-127.4-1.5-385,0.2-534-0.5c-118.8-0.4-178.2,1.8-246,1.3
		c-22-0.2-83.2-0.6-156.6-1.1v4.4c65.3-0.9,210.8-1.4,226.4-1.5c81.2-0.7,76.5-0.8,157.2-0.3c88.7,0.5,164.6,1.1,250.9,2.1
		c119.3,1.5,184.6,1.1,305.3,0.2c123.9-1,201.2,0.5,313.2,0.3c43.2-0.1,166.6-0.4,271.6-0.3v-2.9
		C1461.9,174.4,1260.4,174,1206.5,174z"/>
	<path class="st1" d="M1055.4,275.9c-90.1,1.3-460.7,4.9-545.7,4.8c-34.4-0.1-73.7,0.6-115.2,0.6c-116.3,0-270.7-3.8-394.5-7v3.1
		c54.9,1.2,110.4,3.2,170,3.6c107.2,0.8,207.7,1.9,318.9,1.6c157-0.3,297.4-2.7,444.8-3.3c137-0.6,396.7-1,590.8-2.5v-2.5
		c-82.2,0.8-168.9,1.4-235.9,1.7C1206,276,1146.7,274.8,1055.4,275.9z"/>
	<path class="st1" d="M269.5,196.5c236.8,0.5,495.2,0.8,731.7,0.7c134.3-0.5,337.8-2.3,523.3-3.7v-2.2c-147.5,0.2-301.1,0-445.9,0
		c-121.6-0.1-506.9,2.7-578.9,1.8c-138.9-0.7-323-0.5-499.7-0.5v3.9C90.7,196.5,180.9,196.4,269.5,196.5z"/>
	<path class="st1" d="M1090.3,180.4c-236.3-0.6-680.5-1-888.3-4.3c-62-0.8-137.1-0.4-202,0.3v2c70.7-0.1,140.1-0.1,202.5,0.5
		c108.5,1.4,281.2,2.3,397.6,3.1c37.3,0.2,150.4,1,62,2.6c-60.8,1-350.6-2.1-426.1-2.8c-73.5-0.4-153.2-0.5-236-0.5v2.6
		c38.7,0.1,74.6,0.3,105,0.6c110.1,1.1,426.5,1.4,545.7,1.1c37.1-0.1,117-0.4,97,2c-15.1,1.4-130.7,0.7-183.4,1
		c-121.7,0.4-345.9,0.1-564.3-0.3v1.2c230.9,0.4,559.2,0.7,768.8-0.7c84.1-0.7,591.7-0.9,755.7-0.3v-3.2
		c-81.8,0-160.1,0.1-243.9,0.4c-98.4,0.3-132.7,0-224.3-0.1c-77.3,0.1-214.3-0.2-289.1-1.1v0c-52.8-1.1,91.8-2.2,107-2.3
		c67.7-0.4,154,0.3,221,0.7c94.3,0.7,137.6,0.5,231.4,0.4c74.2-0.1,129.9,0,197.8-0.3v-3.7C1356.2,180.2,1118,180.5,1090.3,180.4z"
		/>
	<path class="st1" d="M861.1,211c-160.6,0-476.8,0.9-613.9,0.1c-76-0.4-160.5-0.6-247.1-0.6v3.6c328.1,0.7,704,1.5,946.2,0.3
		c149.1-1.2,417.8-3.9,561-3.6c4.2,0,10.1,0,17.3,0v-2.4c-95.1,0.1-191.7,0.4-281.2,0.8C1126.2,209.7,975,211.1,861.1,211z"/>
</g>
</svg>
